<?xml version="1.0" standalone="no"?>
<!DOCTYPE svg PUBLIC "-//W3C//DTD SVG 20010904//EN"
 "http://www.w3.org/TR/2001/REC-SVG-20010904/DTD/svg10.dtd">
<svg version="1.0" xmlns="http://www.w3.org/2000/svg"
 width="153.000000pt" height="157.000000pt" viewBox="0 0 153.000000 157.000000"
 preserveAspectRatio="xMidYMid meet">
<metadata>
Created by potrace 1.16, written by Peter Selinger 2001-2019
</metadata>
<g transform="translate(0.000000,157.000000) scale(0.100000,-0.100000)"
fill="#000000" stroke="none">
<path d="M17 1559 c-15 -9 -17 -30 -17 -209 0 -187 1 -200 19 -210 12 -6 114
-10 260 -10 133 0 241 -3 241 -6 0 -3 -11 -20 -24 -37 -66 -88 -98 -191 -98
-307 1 -106 27 -196 82 -277 l39 -58 -123 -5 c-83 -3 -128 -9 -140 -19 -14
-12 -16 -39 -16 -198 0 -108 4 -192 10 -204 10 -18 27 -19 515 -19 488 0 505
1 515 19 6 12 10 96 10 205 0 180 -1 185 -22 200 -19 14 -72 16 -371 16 -314
0 -349 2 -343 16 4 10 1 14 -6 11 -24 -8 -88 96 -115 187 -21 68 -20 187 1
259 19 64 65 148 104 190 l26 27 464 0 c300 0 470 4 483 10 18 10 19 23 19
210 0 187 -1 200 -19 210 -27 14 -1469 13 -1494 -1z m1493 -28 c6 -11 10 -90
10 -185 0 -136 -3 -167 -16 -180 -14 -14 -95 -16 -739 -16 -644 0 -725 2 -739
16 -13 13 -16 44 -16 180 0 95 4 174 10 185 10 19 29 19 745 19 716 0 735 0
745 -19z m-252 -1123 c8 -8 12 -66 12 -195 0 -170 -1 -183 -19 -193 -13 -6
-185 -10 -490 -10 -414 0 -471 2 -485 16 -13 13 -16 45 -16 193 0 124 4 181
12 189 17 17 969 17 986 0z"/>
<path d="M55 1381 c-11 -36 17 -67 50 -55 8 4 15 14 15 23 0 13 -2 13 -9 2
-11 -17 -41 -7 -41 13 0 21 19 30 35 16 12 -10 15 -9 15 4 0 24 -57 22 -65 -3z"/>
<path d="M135 1365 l0 -35 49 0 c40 0 47 3 42 16 -3 9 -6 19 -6 24 0 5 -14 8
-32 8 -18 -1 -34 4 -36 10 -8 24 -17 11 -17 -23z"/>
<path d="M298 1390 c-2 -8 -2 -25 0 -37 3 -18 11 -23 33 -23 15 0 30 4 33 9
11 17 -6 41 -29 41 -13 0 -25 6 -27 13 -4 9 -6 8 -10 -3z m19 -42 c-3 -8 -6
-5 -6 6 -1 11 2 17 5 13 3 -3 4 -12 1 -19z"/>
<path d="M454 1365 c1 -32 3 -35 31 -34 24 1 25 3 8 6 -18 3 -23 11 -23 34 0
16 -4 29 -8 29 -5 0 -8 -16 -8 -35z"/>
<path d="M565 1365 c0 -20 5 -35 12 -35 6 0 9 9 6 23 -5 21 -4 21 16 -3 l21
-25 0 32 c0 17 6 34 13 36 6 3 2 6 -10 6 -17 1 -21 -3 -17 -16 5 -17 5 -17 -6
0 -18 28 -35 20 -35 -18z"/>
<path d="M868 1369 c3 -22 1 -30 -7 -25 -6 4 -11 13 -11 20 0 9 -23 13 -79 15
-77 1 -79 1 -75 -21 l5 -23 -11 23 c-12 29 -44 25 -48 -6 -3 -20 1 -22 37 -22
30 0 39 3 35 14 -3 7 2 16 12 20 13 5 15 2 11 -14 -5 -19 0 -20 72 -20 l77 0
-4 35 c-2 19 -7 35 -11 35 -4 0 -5 -14 -3 -31z m-201 -21 c-3 -8 -6 -5 -6 6
-1 11 2 17 5 13 3 -3 4 -12 1 -19z m120 0 c-3 -8 -6 -5 -6 6 -1 11 2 17 5 13
3 -3 4 -12 1 -19z"/>
<path d="M925 1365 c0 -26 4 -35 17 -35 12 0 15 5 11 17 -4 10 -2 14 4 10 6
-4 14 0 17 9 11 28 7 34 -21 34 -25 0 -28 -3 -28 -35z m45 21 c0 -3 -4 -8 -10
-11 -5 -3 -10 -1 -10 4 0 6 5 11 10 11 6 0 10 -2 10 -4z"/>
<path d="M1185 1381 c-11 -36 17 -67 49 -55 24 9 28 34 5 34 -11 0 -17 -4 -14
-10 3 -5 1 -10 -5 -10 -16 0 -24 30 -12 42 8 8 15 8 27 -2 12 -10 15 -10 15 4
0 24 -57 22 -65 -3z"/>
<path d="M235 1345 c0 -22 5 -35 13 -35 7 0 10 5 7 10 -3 6 1 10 9 10 21 0 30
18 16 35 -23 28 -45 18 -45 -20z m35 5 c0 -5 -4 -10 -10 -10 -5 0 -10 5 -10
10 0 6 5 10 10 10 6 0 10 -4 10 -10z"/>
<path d="M375 1355 c0 -14 5 -25 12 -25 7 0 10 7 7 15 -4 8 -1 15 5 15 6 0 11
5 11 10 0 6 -8 10 -17 10 -12 0 -18 -8 -18 -25z"/>
<path d="M987 1373 c-4 -3 -7 -15 -7 -25 0 -14 8 -18 40 -18 29 0 38 4 34 14
-3 7 2 16 12 20 13 5 15 2 11 -14 -4 -18 0 -20 35 -20 35 0 39 2 36 23 -3 19
-10 22 -60 25 -54 3 -56 2 -52 -20 l5 -23 -10 23 c-10 21 -31 29 -44 15z m20
-25 c-3 -8 -6 -5 -6 6 -1 11 2 17 5 13 3 -3 4 -12 1 -19z m120 0 c-3 -8 -6 -5
-6 6 -1 11 2 17 5 13 3 -3 4 -12 1 -19z"/>
<path d="M1269 1378 c-14 -49 -16 -49 101 -47 109 1 110 1 110 25 0 17 -6 24
-20 24 -11 0 -20 -6 -20 -12 0 -9 -3 -9 -8 -2 -4 5 -32 11 -64 12 -53 2 -56 1
-51 -19 4 -15 3 -20 -5 -15 -7 4 -12 14 -12 22 0 11 -28 22 -31 12z m98 -30
c-3 -8 -6 -5 -6 6 -1 11 2 17 5 13 3 -3 4 -12 1 -19z"/>
<path d="M305 241 c-7 -22 3 -51 19 -52 16 -2 141 3 143 5 1 1 0 11 -3 23 -5
17 -13 21 -37 21 -17 -1 -33 4 -35 10 -2 7 -21 12 -42 12 -29 0 -40 -5 -45
-19z m51 -2 c4 -8 9 -7 15 2 6 10 9 5 9 -16 0 -23 -3 -27 -10 -15 -6 10 -10
11 -10 3 0 -16 -26 -17 -35 -3 -8 14 1 40 14 40 5 0 13 -5 17 -11z"/>
<path d="M538 249 c-2 -7 -2 -24 0 -36 4 -20 10 -23 53 -23 39 0 47 3 43 15
-4 8 -1 15 5 15 6 0 11 5 11 10 0 7 -19 10 -46 9 -29 -2 -48 2 -54 10 -6 11
-8 11 -12 0z m32 -28 c0 -6 -4 -13 -10 -16 -5 -3 -10 1 -10 9 0 9 5 16 10 16
6 0 10 -4 10 -9z"/>
<path d="M685 249 c-4 -6 -4 -13 0 -17 3 -3 10 0 15 8 8 13 10 13 10 1 0 -8
-7 -23 -17 -33 -15 -17 -14 -18 23 -18 28 0 35 3 24 9 -8 6 -19 7 -25 3 -5 -3
-4 2 4 11 7 9 11 24 7 32 -6 17 -32 20 -41 4z"/>
<path d="M812 221 c-1 -33 2 -38 21 -37 14 1 24 10 28 26 7 24 7 24 8 3 1 -19
7 -23 31 -23 22 0 28 4 24 15 -4 9 0 15 10 15 10 0 13 -6 10 -15 -5 -11 1 -15
21 -15 21 0 26 4 21 16 -3 9 -6 19 -6 24 0 4 -21 8 -47 8 -25 1 -50 6 -53 13
-6 8 -9 7 -13 -2 -4 -10 -6 -10 -6 -1 -1 6 -12 12 -25 12 -21 0 -24 -5 -24
-39z m38 19 c0 -5 -2 -10 -4 -10 -3 0 -8 5 -11 10 -3 6 -1 10 4 10 6 0 11 -4
11 -10z m60 -23 c0 -8 -7 -14 -15 -14 -8 0 -15 6 -15 14 0 7 7 13 15 13 8 0
15 -6 15 -13z m-65 -7 c3 -5 -1 -10 -9 -10 -9 0 -16 5 -16 10 0 6 4 10 9 10 6
0 13 -4 16 -10z"/>
<path d="M998 248 c-3 -7 -2 -23 0 -35 3 -19 11 -23 38 -23 19 0 34 -4 34 -10
0 -5 11 -10 25 -10 14 0 25 5 25 10 0 6 25 10 55 10 52 0 55 1 55 25 0 22 -4
25 -35 25 -28 0 -38 -5 -45 -22 -8 -21 -9 -20 -9 10 -1 30 -15 44 -23 22 -5
-16 -88 -18 -103 -3 -10 10 -14 10 -17 1z m32 -27 c0 -6 -4 -13 -10 -16 -5 -3
-10 1 -10 9 0 9 5 16 10 16 6 0 10 -4 10 -9z m96 -18 c-10 -10 -19 5 -10 18 6
11 8 11 12 0 2 -7 1 -15 -2 -18z"/>
<path d="M475 205 c0 -22 5 -35 13 -35 7 0 10 5 7 10 -3 6 1 10 9 10 21 0 30
18 16 35 -23 28 -45 18 -45 -20z m35 5 c0 -5 -4 -10 -10 -10 -5 0 -10 5 -10
10 0 6 5 10 10 10 6 0 10 -4 10 -10z"/>
</g>
</svg>
